<?xml version="1.0" standalone="no"?>
<!DOCTYPE svg PUBLIC "-//W3C//DTD SVG 20010904//EN"
 "http://www.w3.org/TR/2001/REC-SVG-20010904/DTD/svg10.dtd">
<svg version="1.0" xmlns="http://www.w3.org/2000/svg"
 width="2172.000000pt" height="724.000000pt" viewBox="0 0 2172.000000 724.000000"
 preserveAspectRatio="xMidYMid meet">

<g transform="translate(0.000000,724.000000) scale(0.100000,-0.100000)"
fill="#000000" stroke="none">
<path d="M5615 6171 c-123 -27 -253 -88 -356 -167 -161 -124 -305 -356 -364
-587 l-22 -90 -47 -22 c-68 -33 -96 -35 -230 -19 l-120 15 -36 39 c-22 24 -47
40 -61 41 -48 2 -74 -3 -100 -22 -39 -28 -56 -24 -84 21 -31 49 -63 71 -106
71 -207 4 -224 3 -252 -15 -15 -11 -44 -20 -63 -22 -59 -5 -124 -73 -158 -164
-16 -43 -20 -46 -77 -63 -62 -18 -142 -79 -154 -118 -4 -10 -21 -23 -41 -28
-80 -22 -166 -93 -201 -165 -11 -23 -27 -36 -61 -49 -49 -17 -93 -53 -138
-112 -14 -19 -33 -35 -41 -35 -7 0 -31 -9 -52 -20 -35 -17 -61 -19 -266 -20
-280 -2 -295 2 -339 93 -58 120 -197 225 -309 234 -29 2 -76 16 -105 30 -58
28 -115 28 -172 -2 -43 -22 -98 -82 -111 -122 -6 -19 -30 -54 -53 -77 -24 -23
-53 -66 -66 -95 l-24 -52 -231 6 c-126 3 -317 8 -422 11 l-193 5 0 -1701 0
-1700 36 0 c21 0 33 -4 29 -10 -3 -5 -3 -10 2 -11 4 0 60 -7 123 -15 236 -31
1028 -43 1062 -17 7 6 58 13 113 17 177 12 235 19 229 28 -8 12 1775 4 1856
-10 36 -5 90 -18 120 -28 71 -22 215 -22 289 0 30 9 76 16 101 16 26 0 69 7
96 15 43 13 1021 15 8301 15 l8251 0 -1 1708 -2 1707 -7458 0 c-4968 0 -7456
3 -7453 10 2 6 23 51 45 102 45 104 85 243 102 353 15 108 12 337 -7 428 -59
287 -221 488 -461 573 -65 23 -249 34 -318 20z m215 -132 c89 -24 148 -57 214
-118 226 -212 286 -612 147 -992 -124 -338 -390 -568 -656 -569 -159 0 -259
43 -380 165 -65 64 -89 98 -127 175 -59 119 -77 188 -85 318 l-6 102 47 0 46
0 0 -59 c0 -73 39 -230 75 -302 68 -134 187 -240 312 -279 86 -27 155 -25 250
5 133 42 251 136 345 274 63 92 97 167 134 296 27 93 29 112 29 270 0 153 -2
177 -24 240 -76 226 -213 362 -396 396 -271 50 -566 -174 -670 -509 -43 -137
-39 -132 -85 -132 -50 0 -51 9 -14 129 129 430 496 686 844 590z m-8 -167
c106 -47 211 -171 257 -303 61 -178 51 -415 -26 -608 -31 -79 -92 -181 -137
-234 l-33 -37 -319 -1 -319 -1 -33 49 c-32 47 -74 163 -85 235 -5 35 -3 38 31
55 20 10 42 28 48 41 6 12 14 26 18 29 13 14 400 51 414 40 21 -17 104 -2 124
23 58 72 21 160 -68 160 -31 0 -56 7 -77 22 -33 23 -51 25 -167 14 -41 -4
-128 -10 -193 -14 l-118 -7 6 34 c10 52 80 209 119 266 82 117 196 208 310
245 75 25 183 21 248 -8z m-1792 -468 c10 -11 23 -14 50 -9 28 5 42 2 55 -11
45 -45 62 -161 31 -209 -24 -36 -35 -31 -29 14 7 55 -22 153 -45 149 -19 -5
-19 -5 3 -68 19 -53 13 -105 -18 -137 -30 -34 -37 -28 -31 25 7 61 -23 155
-50 160 -15 3 -17 0 -11 -14 4 -11 15 -44 23 -75 14 -50 14 -61 1 -95 -11 -30
-21 -40 -42 -42 -27 -3 -27 -2 -28 55 -1 66 -18 122 -42 137 -26 17 -29 2 -7
-45 35 -79 21 -151 -36 -169 -39 -13 -61 -5 -43 16 14 17 4 77 -19 116 -19 33
-62 55 -73 36 -4 -6 -6 -15 -3 -19 4 -7 -56 -32 -63 -26 -2 2 13 36 32 74 39
78 73 108 113 100 18 -4 35 2 55 19 31 26 48 29 78 14 14 -8 25 -7 41 5 28 19
42 19 58 -1z m2318 -138 c-6 -107 -37 -253 -48 -222 -4 12 -10 2 -19 -34 -24
-94 -22 -45 3 81 14 68 28 156 31 194 8 86 12 98 26 89 8 -5 10 -38 7 -108z
m-1944 53 l27 -21 -36 -34 c-35 -32 -37 -36 -33 -89 3 -51 1 -56 -19 -62 -31
-7 -49 1 -68 31 -19 28 -13 46 15 46 22 0 50 36 50 65 0 11 -6 32 -14 47 -11
20 -11 28 -3 32 26 10 56 5 81 -15z m1202 -44 c8 -32 -1 -57 -26 -73 -31 -19
-43 -4 -20 25 22 28 26 58 10 68 -5 3 -10 11 -10 16 0 19 40 -12 46 -36z
m-136 30 c0 -3 -5 -14 -12 -24 -9 -15 -8 -24 5 -44 l16 -24 -75 -7 c-42 -3
-169 -13 -282 -21 -114 -8 -231 -20 -260 -27 -46 -10 -55 -9 -69 5 -14 13 -14
20 -3 47 7 17 22 35 32 41 11 6 81 15 157 20 75 6 208 16 296 23 205 17 195
17 195 11z m76 -19 c6 -27 -10 -66 -29 -66 -7 0 -18 9 -25 21 -11 17 -11 25 3
45 20 31 43 31 51 0z m-1262 8 c10 -4 16 -18 16 -35 0 -26 -3 -29 -35 -29 -33
0 -35 2 -35 35 0 36 15 44 54 29z m1392 -24 c17 0 20 -55 3 -65 -19 -12 -59 4
-59 24 0 32 12 52 27 47 8 -3 21 -6 29 -6z m58 -6 c11 -28 6 -62 -10 -78 -24
-25 -34 -19 -22 14 5 17 8 42 5 55 -5 28 17 35 27 9z m-1199 -19 c28 -3 62 -9
78 -11 l27 -6 -20 -25 c-11 -14 -20 -36 -20 -49 0 -22 -4 -24 -42 -24 -24 1
-61 7 -83 15 -21 8 -41 12 -43 11 -9 -9 25 -47 47 -53 22 -5 23 -8 16 -72 -8
-85 -70 -521 -95 -676 -50 -307 -110 -722 -110 -760 l0 -43 -42 5 c-24 3 -46
9 -51 12 -4 4 0 52 8 107 8 54 22 146 31 204 16 108 32 208 58 365 9 50 38
252 66 450 28 198 55 376 60 394 7 27 6 39 -5 51 -8 9 -15 29 -15 44 0 33 43
79 68 72 9 -3 40 -8 67 -11z m137 -37 c-15 -15 -16 -82 -2 -109 6 -10 24 -26
40 -34 25 -13 30 -22 30 -53 0 -40 35 -388 74 -737 45 -400 85 -779 91 -860 6
-77 5 -79 -9 -47 -8 17 -31 42 -51 53 -19 12 -35 27 -35 34 0 16 -22 219 -59
555 -36 319 -66 612 -80 775 -6 66 -16 172 -22 235 -6 63 -11 125 -10 138 1
30 19 62 33 62 9 0 9 -3 0 -12z m77 -92 c11 -13 11 -16 -2 -16 -36 0 -61 72
-34 99 10 10 13 4 18 -28 3 -21 11 -46 18 -55z m-983 39 c4 -14 5 -28 2 -30
-2 -2 -50 -22 -106 -44 -91 -35 -104 -38 -108 -23 -3 9 -9 24 -14 33 -7 14 -1
20 33 32 23 8 67 24 97 36 74 27 88 26 96 -4z m487 -63 c14 -13 43 -26 66 -29
l42 -6 -5 -41 c-19 -154 -40 -294 -45 -310 -7 -17 -21 -18 -225 -18 -120 1
-220 3 -222 4 -2 2 9 28 24 58 20 41 27 69 27 117 0 35 3 63 7 63 3 0 19 11
35 24 15 13 45 26 65 30 64 12 108 35 128 69 10 17 29 46 42 64 19 26 24 28
29 15 4 -10 18 -27 32 -40z m915 7 c3 -22 -2 -27 -23 -31 -31 -6 -39 4 -31 38
9 35 50 30 54 -7z m-1653 -33 c17 -26 11 -56 -11 -56 -17 0 -33 37 -26 62 6
24 19 23 37 -6z m596 5 c-7 -11 -31 -24 -61 -31 -56 -13 -76 -6 -46 16 12 8
24 10 29 5 6 -6 22 -2 41 10 39 24 49 24 37 0z m501 -188 c8 -104 13 -191 11
-195 -6 -11 -111 -10 -117 0 -3 5 4 78 15 163 28 221 27 219 54 219 21 0 22
-4 37 -187z m-838 152 c26 -20 67 -19 110 1 42 20 69 13 64 -18 -5 -34 -52
-52 -134 -53 -62 0 -74 3 -102 27 l-32 27 22 15 c28 20 47 20 72 1z m1094 -82
c6 -54 23 -134 37 -178 13 -44 25 -84 25 -88 0 -4 -24 -7 -52 -5 l-53 3 -11
90 c-7 50 -15 132 -19 183 l-7 92 34 0 34 0 12 -97z m-1349 20 c20 3 45 7 56
11 15 4 25 -2 40 -26 32 -51 68 -71 133 -76 36 -2 68 1 82 8 22 12 23 12 18
-48 -3 -45 -11 -69 -31 -95 -57 -75 -152 -104 -237 -72 -25 10 -57 18 -72 19
-25 1 -33 12 -74 91 -40 78 -45 96 -40 133 3 23 13 56 22 74 l16 31 25 -28
c21 -22 32 -26 62 -22z m-173 -81 c2 -122 54 -205 167 -264 32 -17 60 -22 119
-23 53 0 78 -4 78 -12 0 -47 -59 -121 -122 -154 -54 -28 -163 -26 -226 3 -183
86 -243 334 -114 472 23 24 73 54 92 56 3 0 6 -35 6 -78z m-1524 28 c13 -16
28 -20 75 -20 100 0 199 -60 269 -164 22 -33 30 -54 24 -60 -19 -19 -10 -35
28 -45 52 -15 103 -60 137 -122 49 -90 39 -211 -23 -282 -14 -16 -14 -19 -2
-27 12 -8 11 -14 -8 -40 -13 -17 -22 -38 -20 -47 2 -13 11 -9 39 18 42 40 104
157 113 215 7 37 11 42 55 58 31 11 70 16 107 14 l59 -3 7 -69 c5 -50 17 -90
43 -143 33 -67 35 -76 25 -112 -38 -141 -331 -446 -590 -614 -168 -109 -283
-156 -396 -164 -88 -6 -138 9 -209 62 -39 31 -81 110 -91 172 -12 81 40 223
112 303 l36 40 27 -19 c35 -25 68 -34 97 -27 33 9 30 19 -11 39 -40 19 -45 34
-12 39 38 5 20 23 -32 29 -200 26 -299 252 -174 399 38 44 36 64 -7 55 -27 -6
-29 -4 -36 30 -13 70 1 177 30 235 30 59 92 129 144 161 39 25 43 43 6 28 -35
-13 -38 -7 -14 23 49 63 154 84 192 38z m1288 -193 c0 -61 35 -162 76 -224 62
-91 178 -153 286 -153 26 0 48 -3 48 -8 0 -4 -12 -25 -26 -46 -38 -55 -128
-96 -214 -96 -82 0 -133 23 -204 90 -138 131 -149 337 -23 445 22 19 44 35 49
35 4 0 8 -20 8 -43z m-186 -327 c55 -146 177 -248 309 -258 31 -2 57 -7 57
-11 0 -13 -70 -53 -116 -67 -67 -20 -104 -18 -195 12 -95 32 -161 88 -205 174
-60 118 -26 267 76 332 l45 29 6 -83 c3 -46 14 -103 23 -128z m1190 66 c43
-21 65 -40 87 -74 34 -54 36 -72 9 -72 -27 0 -109 -42 -150 -77 -47 -39 -106
-134 -120 -192 -6 -27 -18 -52 -25 -55 -7 -2 -19 -21 -26 -40 -7 -20 -15 -36
-19 -36 -3 0 -19 9 -36 19 -41 25 -99 114 -125 195 -20 61 -21 72 -10 136 14
76 46 130 105 175 82 62 208 71 310 21z m132 -233 c-3 -16 -15 -89 -26 -163
-28 -190 -50 -323 -55 -338 -3 -8 -16 0 -36 23 -34 39 -53 44 -68 18 -17 -30
-3 73 14 107 8 16 15 42 16 57 0 25 1 26 9 8 5 -11 9 -33 9 -48 1 -35 29 -47
47 -22 20 26 17 113 -4 155 -20 41 -54 50 -102 25 -18 -9 -34 -14 -37 -11 -3
3 5 25 17 50 35 73 147 164 203 166 15 0 17 -5 13 -27z m-577 -173 c27 -72 85
-146 143 -184 56 -37 61 -56 16 -56 -27 1 -38 8 -60 39 -31 46 -134 101 -203
108 l-45 6 0 46 c0 52 30 123 81 191 l34 45 6 -70 c4 -38 16 -95 28 -125z
m794 102 c24 -26 59 -111 53 -128 -3 -8 -16 -14 -28 -14 -13 0 -36 -7 -52 -15
l-28 -15 6 57 c16 142 19 149 49 115z m-1405 -172 l77 -5 -1 -71 c0 -63 -5
-80 -47 -165 -59 -120 -151 -234 -347 -429 -156 -156 -261 -244 -393 -333
-106 -70 -154 -91 -225 -95 -52 -4 -71 0 -116 22 -97 48 -168 152 -182 268
l-7 56 59 17 c67 19 208 88 292 142 240 153 533 443 624 618 l31 61 79 -40
c65 -33 91 -41 156 -46z m225 19 c12 -6 32 -21 44 -32 l23 -20 -43 -25 c-23
-14 -58 -40 -77 -58 l-35 -33 0 81 c1 71 3 82 20 89 29 11 43 10 68 -2z m774
-87 c-11 -21 -31 -50 -42 -67 -30 -41 -65 -112 -59 -118 3 -3 -2 -19 -10 -36
-18 -34 -21 -76 -6 -66 6 3 10 14 10 24 0 20 36 71 51 71 19 0 7 -56 -19 -87
-39 -45 -65 -50 -87 -17 -24 38 -16 104 25 192 38 83 105 154 138 145 20 -5
20 -5 -1 -41z m546 34 c63 -27 111 -107 123 -207 l6 -54 -50 -12 c-28 -6 -69
-24 -91 -39 -41 -27 -111 -111 -111 -133 0 -6 -6 -11 -12 -11 -23 0 -115 47
-120 62 -5 12 32 273 46 333 3 11 19 29 37 39 62 37 120 44 172 22z m6747 -29
c41 -8 94 -20 117 -26 l42 -11 -104 -255 c-57 -140 -106 -259 -110 -265 -4 -6
-18 5 -34 28 -19 26 -48 47 -92 67 -61 28 -71 30 -199 30 -157 -1 -219 -14
-350 -77 -145 -70 -259 -206 -276 -329 -5 -38 -2 -58 19 -102 41 -90 122 -137
271 -158 100 -14 229 -3 394 32 52 11 96 18 98 16 4 -4 -93 -277 -144 -407
l-18 -45 -84 -17 c-206 -41 -314 -52 -525 -53 -235 0 -329 13 -466 66 -357
138 -475 466 -297 824 104 207 264 361 506 483 212 108 437 177 673 207 139
17 468 13 579 -8z m-4603 -22 c59 -18 106 -65 122 -122 15 -52 14 -147 -3
-316 -22 -219 -29 -343 -18 -332 5 6 80 116 167 245 87 129 205 304 263 388
l105 152 504 0 c306 0 503 -4 503 -9 0 -6 -76 -214 -169 -463 -173 -464 -341
-917 -368 -998 -9 -25 -20 -51 -26 -57 -7 -10 -86 -13 -333 -13 -177 0 -325 3
-327 8 -2 4 15 59 40 122 110 289 343 923 340 927 -2 2 -151 -218 -330 -489
-179 -271 -337 -510 -351 -531 l-26 -37 -288 2 -287 3 3 115 c3 109 12 236 47
622 8 92 15 200 14 240 l-1 73 -32 -95 c-47 -135 -172 -477 -269 -735 l-83
-220 -319 -3 c-175 -1 -324 -1 -331 2 -8 3 38 141 143 428 84 233 201 551 258
708 57 157 113 311 125 343 l21 57 428 0 c352 0 436 -3 478 -15z m2783 4 c0
-6 -39 -117 -86 -248 -81 -223 -399 -1086 -448 -1216 l-22 -60 -362 -3 c-205
-1 -362 2 -362 7 0 4 54 154 121 332 175 471 409 1113 409 1123 0 2 7 20 15
40 l15 36 360 0 c256 0 360 -3 360 -11z m3000 0 c0 -9 -96 -273 -174 -481
l-26 -68 189 0 189 0 10 28 c79 221 148 410 168 465 l26 67 346 -2 c225 -2
346 -7 345 -13 -1 -5 -29 -82 -61 -170 -33 -88 -110 -297 -172 -465 -63 -168
-161 -435 -220 -595 l-105 -290 -343 -3 c-380 -4 -356 -8 -327 65 81 211 164
447 160 452 -4 3 -85 6 -182 6 l-175 0 -13 -30 c-7 -17 -47 -128 -90 -246 -42
-118 -81 -222 -86 -231 -9 -17 -35 -18 -337 -17 -180 1 -337 4 -348 7 -21 7
-18 16 78 277 54 149 170 466 258 705 87 239 168 461 180 493 l21 57 345 0
c240 0 344 -3 344 -11z m2990 1 c0 -5 -17 -56 -39 -112 -21 -57 -51 -139 -66
-183 -16 -44 -33 -86 -38 -92 -7 -10 -103 -13 -417 -13 l-409 0 -30 -80 c-17
-43 -31 -82 -31 -85 0 -3 178 -5 396 -5 373 0 396 -1 389 -17 -4 -10 -34 -93
-67 -185 l-61 -168 -396 0 -396 0 -30 -82 c-17 -45 -31 -86 -33 -90 -2 -4 188
-8 422 -8 234 0 426 -1 426 -2 0 -2 -33 -93 -74 -203 l-73 -200 -769 -3 c-422
-1 -771 1 -775 5 -4 5 47 152 113 328 124 333 436 1171 443 1193 6 15 1515 18
1515 2z m1080 1 c0 -5 -9 -33 -20 -63 -11 -29 -76 -210 -146 -403 -70 -192
-144 -396 -164 -452 l-38 -103 349 0 c191 0 350 -3 352 -7 4 -7 -52 -162 -148
-409 l-36 -91 -704 -2 c-387 -1 -706 2 -709 7 -2 4 19 73 48 153 261 707 293
795 418 1143 33 94 67 185 74 203 l14 33 355 0 c207 0 355 -4 355 -9z m1660 0
c0 -5 -58 -166 -129 -358 -71 -191 -195 -531 -276 -754 l-148 -407 -39 -5
c-52 -7 -675 -3 -683 4 -3 3 7 37 21 75 14 38 52 141 84 229 33 88 89 241 125
340 37 99 93 252 125 340 89 245 177 487 189 518 l11 27 360 0 c210 0 360 -4
360 -9z m1313 -5 c63 -19 103 -50 129 -99 21 -39 22 -54 20 -217 -1 -96 -9
-238 -17 -315 -14 -135 -26 -360 -20 -353 2 2 51 134 108 293 103 285 227 624
249 678 l10 27 309 0 c170 0 309 -2 309 -5 0 -3 -103 -281 -229 -617 -126
-337 -253 -680 -283 -763 l-55 -150 -509 0 -509 0 3 155 c2 85 8 200 13 255
10 98 22 635 15 635 -3 0 -14 -30 -27 -67 -33 -103 -337 -925 -352 -953 l-13
-25 -299 -3 c-165 -1 -305 0 -311 2 -8 3 4 48 38 138 27 73 99 268 159 433 60
165 118 323 129 350 10 28 60 163 111 300 50 138 97 265 105 283 l13 32 429 0
c336 0 439 -3 475 -14z m-15961 -16 c28 -11 66 -34 84 -51 l32 -31 -49 -27
c-75 -40 -143 -111 -180 -188 -33 -66 -34 -71 -34 -194 l0 -126 -32 7 c-98 22
-189 117 -224 232 -65 212 66 396 283 397 44 1 86 -6 120 -19z m227 -162 c-5
-18 -9 -50 -9 -71 0 -51 44 -97 92 -97 41 1 61 15 91 68 l23 41 28 -18 c29
-19 66 -68 66 -86 0 -6 -27 -23 -59 -38 -69 -31 -138 -105 -172 -183 -28 -61
-30 -171 -6 -227 l16 -38 -27 -10 c-49 -19 -118 -13 -177 15 -130 64 -208 235
-176 388 7 34 22 80 33 101 49 96 170 187 249 187 l38 0 -10 -32z m202 -31
c-17 -17 -22 -2 -9 29 11 28 12 29 16 5 2 -13 -1 -28 -7 -34z m1119 20 c44
-23 74 -56 84 -92 5 -19 2 -20 -52 -17 -67 4 -155 -23 -207 -63 -19 -14 -36
-22 -38 -18 -3 5 -8 49 -12 99 l-7 90 33 11 c62 20 151 15 199 -10z m-471
-100 c-38 -32 -50 -57 -37 -81 10 -18 13 -17 49 25 20 24 40 42 42 39 3 -3 8
-39 12 -82 l7 -76 -34 -16 c-34 -16 -38 -16 -101 8 -104 39 -109 43 -96 69 21
39 89 112 117 124 15 7 36 12 47 12 18 1 17 -1 -6 -22z m-1555 -76 c9 -71 69
-183 128 -241 61 -60 125 -92 193 -98 47 -4 53 -8 70 -38 10 -19 35 -52 55
-74 l36 -39 -45 -23 c-40 -20 -61 -23 -161 -23 -107 0 -119 2 -170 28 -89 46
-136 91 -172 164 -56 114 -49 246 19 351 15 23 30 42 34 42 4 0 9 -22 13 -49z
m2122 15 c24 -18 13 -31 -14 -17 -44 24 -155 0 -227 -48 -61 -42 -65 -44 -65
-28 0 17 79 71 136 91 51 19 145 20 170 2z m-18 -58 c17 -17 15 -44 -5 -76
-31 -49 -124 -152 -139 -152 -7 0 -20 13 -29 30 -17 32 -43 50 -73 50 -19 0
-32 18 -32 45 0 16 96 82 146 100 49 18 116 19 132 3z m-3819 -44 c25 -98 164
-204 287 -220 l54 -6 0 -48 c0 -58 29 -157 59 -198 11 -17 21 -33 21 -36 0
-13 -83 -26 -171 -26 -105 0 -170 15 -260 61 -77 38 -110 68 -144 131 -43 76
-42 160 3 251 31 63 100 137 128 137 6 0 17 -21 23 -46z m2871 20 c49 -27 99
-86 125 -148 19 -46 20 -44 -19 -60 -80 -33 -198 -193 -209 -281 -5 -39 -41
-45 -102 -15 -81 39 -144 145 -145 241 0 101 81 213 192 267 58 28 101 27 158
-4z m-1316 -46 c-8 -29 -14 -69 -14 -89 0 -23 -7 -42 -19 -53 -26 -24 -61
-107 -71 -171 -7 -41 -19 -66 -52 -107 -66 -81 -92 -148 -95 -243 -2 -74 -4
-81 -29 -102 -62 -49 -191 -56 -279 -13 -65 31 -140 103 -160 152 -9 24 -12
44 -7 46 5 1 36 19 68 38 149 89 388 294 563 482 57 62 105 112 106 112 1 0
-4 -23 -11 -52z m1076 34 c0 -4 -15 -23 -34 -41 -28 -27 -34 -30 -40 -16 -9
24 -9 23 27 45 35 21 47 25 47 12z m489 -52 c95 -38 108 -46 89 -54 -13 -4
-38 -14 -55 -22 -29 -12 -36 -12 -67 7 -19 11 -45 37 -58 57 -12 20 -27 43
-32 51 -5 8 -5 12 1 10 6 -2 60 -24 122 -49z m298 -42 c27 -21 43 -78 42 -145
l-1 -68 -9 55 c-12 70 -53 131 -99 147 l-35 11 25 10 c26 11 56 7 77 -10z
m-64 -80 c32 -23 44 -43 48 -83 4 -27 1 -30 -26 -33 -17 -2 -62 -20 -100 -41
-88 -47 -136 -105 -234 -281 -76 -136 -98 -204 -67 -216 9 -3 13 -10 10 -15
-8 -13 -49 18 -78 59 -14 20 -41 88 -61 151 -34 110 -35 116 -21 162 24 83
119 209 172 229 15 6 28 9 30 7 2 -1 -12 -22 -31 -46 -36 -45 -55 -105 -38
-122 6 -6 27 19 57 65 105 167 241 232 339 164z m244 0 c43 -41 23 -163 -39
-229 -13 -14 -45 -38 -71 -54 -26 -15 -52 -36 -58 -47 -6 -11 -13 -18 -15 -15
-3 2 13 37 34 76 29 54 50 79 84 100 63 40 70 54 21 45 -21 -3 -42 -10 -48
-14 -6 -6 -9 9 -7 41 2 27 8 46 13 43 5 -3 23 -2 40 1 23 5 29 11 24 23 -23
56 -16 66 22 30z m89 -84 c4 -17 1 -31 -10 -42 -15 -15 -16 -13 -16 26 0 47
16 56 26 16z m-2111 -13 c3 -16 21 -51 40 -77 62 -87 159 -150 279 -180 84
-21 191 -7 285 36 35 17 65 30 67 30 2 0 4 -24 4 -53 0 -66 -45 -163 -93 -200
-149 -113 -340 -109 -503 11 -79 58 -144 195 -144 303 0 49 34 159 50 159 5 0
11 -13 15 -29z m1843 -62 c-2 -6 -22 -18 -43 -27 -104 -40 -193 -123 -250
-233 -25 -48 -55 -81 -55 -60 0 38 100 191 160 245 66 59 201 113 188 75z m-8
-74 c0 -19 -60 -139 -66 -133 -2 3 5 26 16 52 24 53 20 66 -18 67 -24 1 -22 3
13 14 53 18 55 18 55 0z m-3560 -70 c46 -48 101 -78 196 -111 68 -24 95 -28
194 -27 66 0 127 5 144 12 16 6 31 9 34 6 14 -14 13 -108 -2 -160 -13 -43 -29
-69 -65 -105 -62 -62 -125 -84 -246 -83 -263 2 -416 159 -361 373 16 61 50
130 65 130 4 0 23 -16 41 -35z m3485 -7 c-15 -49 -69 -119 -106 -138 -21 -11
-42 -28 -48 -37 -5 -10 -12 -15 -16 -11 -7 7 29 83 45 93 6 4 28 31 51 61 25
35 47 54 60 54 16 0 19 -4 14 -22z m-94 -15 c-42 -57 -51 -66 -56 -62 -7 7 54
89 67 89 5 0 0 -12 -11 -27z m-1781 -19 c0 -9 16 -50 35 -89 70 -146 215 -242
378 -253 42 -2 77 -7 76 -11 -1 -14 -65 -56 -122 -79 -53 -21 -72 -24 -156
-20 -105 5 -150 21 -216 79 -29 26 -38 29 -50 19 -12 -10 -24 -9 -60 1 -25 7
-45 16 -45 20 0 3 17 18 37 32 l38 27 -3 67 c-3 74 13 135 51 190 24 36 37 42
37 17z m2031 -133 c-7 -36 -21 -82 -32 -101 -22 -38 -22 -42 7 80 9 36 13 79
11 97 -7 40 5 52 17 17 5 -17 4 -51 -3 -93z m-764 79 l25 0 -5 -107 c-16 -320
-40 -589 -54 -605 -13 -14 -12 -17 6 -23 12 -3 26 -16 32 -28 11 -20 12 -20
23 11 6 18 65 113 131 211 l120 180 45 -6 c25 -3 46 -7 48 -8 4 -3 -271 -389
-333 -467 -51 -65 -83 -75 -109 -35 -13 19 -13 59 -1 327 8 168 15 363 15 434
0 113 2 127 16 122 9 -3 27 -6 41 -6z m425 -22 c-7 -7 -12 -8 -12 -2 0 6 3 14
7 17 3 4 9 5 12 2 2 -3 -1 -11 -7 -17z m254 -23 c10 -15 13 -32 9 -47 -8 -26
-44 -68 -58 -68 -6 0 -3 8 6 18 26 29 22 77 -9 101 l-27 21 31 0 c22 0 36 -7
48 -25z m-776 -66 c0 -34 -8 -49 -49 -97 -233 -271 -255 -745 -49 -1054 70
-105 136 -161 216 -184 269 -79 541 203 592 612 18 142 -10 302 -81 472 -12
29 -12 34 8 54 30 29 45 15 77 -70 52 -139 58 -173 63 -337 4 -136 2 -174 -15
-252 -65 -289 -226 -503 -433 -573 -93 -32 -212 -25 -303 18 -165 77 -292 272
-348 532 -17 80 -19 119 -15 245 3 92 11 173 21 210 39 144 103 277 169 352
36 41 124 113 138 113 5 0 9 -18 9 -41z m708 14 c-4 -19 -192 -133 -219 -133
-21 0 -29 20 -29 70 0 22 6 43 16 51 14 11 15 9 9 -23 -5 -25 -3 -37 7 -40 7
-3 51 16 98 42 93 52 124 61 118 33z m-286 -54 c-3 -17 3 -48 13 -70 22 -48
55 -60 98 -35 41 23 42 15 5 -28 -41 -46 -89 -62 -118 -38 -27 22 -38 108 -20
162 16 47 28 53 22 9z m-142 -206 c0 -47 -21 -113 -35 -113 -3 0 -5 48 -5 108
l1 107 19 -24 c15 -17 20 -38 20 -78z m-3047 -38 c120 -57 285 -70 397 -30 61
21 68 19 79 -22 20 -71 14 -146 -17 -204 -24 -45 -37 -59 -87 -84 -56 -28 -65
-30 -179 -30 -106 0 -128 3 -174 24 -28 13 -65 39 -82 57 -38 44 -64 131 -58
198 5 50 31 126 43 126 4 0 39 -16 78 -35z m3356 -28 c0 -12 -17 -48 -37 -79
-20 -31 -68 -107 -107 -168 -38 -62 -73 -114 -77 -116 -12 -8 -9 21 3 33 8 8
8 17 1 29 -7 13 -5 24 8 43 9 14 57 85 105 158 84 127 106 148 104 100z m-239
-357 c0 -3 -6 -15 -14 -25 -12 -17 -13 -14 -13 25 0 39 1 42 13 25 8 -10 14
-22 14 -25z m-56 15 c8 -22 -3 -42 -27 -49 -52 -14 -59 -4 -26 38 23 29 44 34
53 11z m-3057 -46 c74 -33 257 -39 338 -10 32 12 65 21 71 21 36 0 52 -167 22
-225 -52 -97 -184 -144 -324 -115 -97 20 -149 58 -180 129 -24 56 -12 221 16
221 4 0 30 -10 57 -21z m16268 -225 c-19 -53 -35 -98 -35 -100 0 -2 -2834 -4
-6299 -4 l-6298 0 25 100 25 100 6308 0 6309 0 -35 -96z m-16090 -174 c45 0
104 7 131 15 27 8 50 15 52 15 1 0 2 -25 2 -55 0 -68 -17 -112 -59 -151 l-32
-30 60 -63 c49 -51 69 -65 112 -76 29 -8 59 -21 68 -29 13 -14 13 -18 -4 -36
-31 -34 -116 -28 -201 15 -71 36 -124 45 -124 22 0 -39 -162 -48 -279 -16
l-76 21 -78 -31 c-43 -17 -93 -31 -112 -31 -35 0 -69 24 -62 44 2 6 54 37 116
68 109 55 115 57 171 51 39 -4 80 0 128 12 53 12 75 14 90 6 25 -13 62 -14 62
-2 0 5 -9 13 -20 16 -25 8 -26 25 -2 25 10 1 2 9 -20 20 -20 11 -48 35 -62 52
-28 39 -50 111 -42 143 6 23 7 23 53 9 25 -8 83 -14 128 -14z m2935 -164 c-22
-20 -78 -36 -124 -35 l-41 1 45 10 c25 5 63 15 85 22 22 8 42 14 45 15 2 0 -2
-5 -10 -13z"/>
<path d="M6332 5270 c0 -14 2 -19 5 -12 2 6 2 18 0 25 -3 6 -5 1 -5 -13z"/>
<path d="M6301 5084 c0 -11 3 -14 6 -6 3 7 2 16 -1 19 -3 4 -6 -2 -5 -13z"/>
<path d="M1956 4749 c-22 -18 -26 -28 -26 -75 0 -64 25 -119 70 -158 39 -32
64 -33 95 -1 32 31 34 97 4 160 -43 91 -90 116 -143 74z m101 -44 c24 -27 43
-83 43 -127 0 -37 -17 -44 -18 -7 -1 38 -32 93 -56 97 -32 7 -49 -18 -43 -68
l4 -45 -18 40 c-23 50 -24 94 -3 124 20 28 58 22 91 -14z m-7 -76 c0 -5 -4 -9
-10 -9 -5 0 -10 7 -10 16 0 8 5 12 10 9 6 -3 10 -10 10 -16z"/>
<path d="M1700 4662 c-26 -26 -30 -38 -30 -81 0 -60 30 -132 68 -161 50 -40
119 -13 142 55 25 77 -40 200 -112 212 -32 5 -41 1 -68 -25z m110 -30 c41 -41
62 -128 40 -162 -8 -12 -10 -9 -10 13 0 15 -9 46 -20 67 -17 33 -26 40 -50 40
-48 0 -65 -53 -35 -110 9 -17 11 -30 6 -30 -16 0 -41 55 -47 103 -5 37 -2 47
21 75 33 39 58 40 95 4z m-20 -82 c0 -5 -4 -10 -10 -10 -5 0 -10 5 -10 10 0 6
5 10 10 10 6 0 10 -4 10 -10z"/>
<path d="M2065 4386 c-45 -23 -114 -52 -155 -65 -41 -13 -81 -27 -89 -29 -10
-4 -13 0 -8 12 4 11 3 16 -4 14 -18 -6 -55 -75 -46 -85 5 -4 13 -1 17 8 8 14
18 15 66 7 31 -5 72 -15 91 -23 20 -8 50 -15 68 -15 35 0 80 29 80 52 0 24 68
138 82 138 19 0 11 25 -8 26 -8 1 -50 -17 -94 -40z m30 -36 c-16 -27 -205 -92
-205 -71 0 3 35 19 78 34 42 15 84 32 92 37 20 13 43 13 35 0z m-15 -61 c0 -5
-11 -21 -25 -34 -27 -27 -66 -32 -112 -14 -28 12 -28 12 27 29 31 9 65 22 75
28 21 11 35 7 35 -9z"/>
<path d="M4087 2084 c-7 -8 3 -34 13 -34 5 0 8 9 7 20 -1 20 -8 25 -20 14z"/>
</g>
</svg>
